<?xml version="1.0" encoding="UTF-8"?><svg id="Layer_1" xmlns="http://www.w3.org/2000/svg" xmlns:xlink="http://www.w3.org/1999/xlink" viewBox="0 0 319.14 60.69"><defs><style>.cls-1{clip-path:url(#clippath-2);}.cls-2{clip-path:url(#clippath-1);}.cls-3{fill:#0072ce;}.cls-4{clip-path:url(#clippath);}.cls-5{clip-path:url(#clippath-3);}</style><clipPath id="clippath"><path class="cls-3" d="M62.53,9.52h-14.67c-1.72,0-3.13,1.41-3.13,3.13v10.82c0,1.57-1.14,2.49-2.66,2.47h-14.01c-3.02,0-4.58-.49-4.58-3.46V12.73c0-1.77-1.45-3.22-3.22-3.22H3.46C.34,9.52,0,11.88,.7,14.35l4.22,15.02c.61,2.18,1.35,4.6,4.28,4.6h10.28c2.97,0,4.9,.14,4.9,3.88v19.61c0,1.77,1.45,3.22,3.22,3.22h14.48c1.77,0,3.22-1.45,3.22-3.22v-24c0-2.06,1.28-3.04,3.21-3.04h14.02c1.72,0,3.13-1.41,3.13-3.13V12.64c0-1.72-1.41-3.13-3.13-3.13"/></clipPath><clipPath id="clippath-1"><path class="cls-3" d="M60.46,32.88h-10.61c-1.07,0-1.94,.87-1.94,1.94v10.2c0,1.07,.87,1.94,1.94,1.94h10.61c1.07,0,1.94-.87,1.94-1.94v-10.2c0-1.07-.87-1.94-1.94-1.94"/></clipPath><clipPath id="clippath-2"><path class="cls-3" d="M38.98,9.52h-9.56c-.94,0-1.71,.77-1.71,1.71v9.01c0,.94,.77,1.71,1.71,1.71h9.56c.94,0,1.71-.77,1.71-1.71V11.23c0-.94-.77-1.71-1.71-1.71"/></clipPath><clipPath id="clippath-3"><path class="cls-3" d="M47.63,0h-5.73c-.56,0-1.03,.46-1.03,1.03V6.42c0,.56,.46,1.03,1.03,1.03h5.73c.56,0,1.03-.46,1.03-1.03V1.03c0-.56-.46-1.03-1.03-1.03"/></clipPath></defs><g><path class="cls-3" d="M62.53,9.52h-14.67c-1.72,0-3.13,1.41-3.13,3.13v10.82c0,1.57-1.14,2.49-2.66,2.47h-14.01c-3.02,0-4.58-.49-4.58-3.46V12.73c0-1.77-1.45-3.22-3.22-3.22H3.46C.34,9.52,0,11.88,.7,14.35l4.22,15.02c.61,2.18,1.35,4.6,4.28,4.6h10.28c2.97,0,4.9,.14,4.9,3.88v19.61c0,1.77,1.45,3.22,3.22,3.22h14.48c1.77,0,3.22-1.45,3.22-3.22v-24c0-2.06,1.28-3.04,3.21-3.04h14.02c1.72,0,3.13-1.41,3.13-3.13V12.64c0-1.72-1.41-3.13-3.13-3.13"/><g class="cls-4"><rect class="cls-3" y="9.52" width="65.66" height="51.17"/></g></g><g><path class="cls-3" d="M60.46,32.88h-10.61c-1.07,0-1.94,.87-1.94,1.94v10.2c0,1.07,.87,1.94,1.94,1.94h10.61c1.07,0,1.94-.87,1.94-1.94v-10.2c0-1.07-.87-1.94-1.94-1.94"/><g class="cls-2"><rect class="cls-3" x="47.91" y="32.88" width="14.48" height="14.08"/></g></g><g><path class="cls-3" d="M38.98,9.52h-9.56c-.94,0-1.71,.77-1.71,1.71v9.01c0,.94,.77,1.71,1.71,1.71h9.56c.94,0,1.71-.77,1.71-1.71V11.23c0-.94-.77-1.71-1.71-1.71"/><g class="cls-1"><rect class="cls-3" x="27.71" y="9.52" width="12.98" height="12.43"/></g></g><g><path class="cls-3" d="M47.63,0h-5.73c-.56,0-1.03,.46-1.03,1.03V6.42c0,.56,.46,1.03,1.03,1.03h5.73c.56,0,1.03-.46,1.03-1.03V1.03c0-.56-.46-1.03-1.03-1.03"/><g class="cls-5"><rect class="cls-3" x="40.87" width="7.78" height="7.45"/></g></g><g><path class="cls-3" d="M80.05,19.05v-6.51h30.69v6.51h-11.44v30.85h-7.81V19.05h-11.44Z"/><path class="cls-3" d="M124.35,50.44c-2.88,0-5.36-.59-7.43-1.76-2.07-1.17-3.67-2.84-4.79-5-1.12-2.16-1.68-4.72-1.68-7.67s.56-5.41,1.68-7.59c1.12-2.18,2.7-3.87,4.73-5.09,2.04-1.22,4.43-1.82,7.18-1.82,1.85,0,3.57,.29,5.17,.88,1.6,.59,3,1.48,4.2,2.65,1.2,1.18,2.13,2.66,2.8,4.44s1,3.86,1,6.25v2.13h-23.66v-4.82h16.35c0-1.12-.24-2.11-.73-2.97-.49-.86-1.16-1.54-2.02-2.03-.86-.49-1.85-.74-2.98-.74s-2.22,.27-3.13,.81c-.91,.54-1.61,1.27-2.13,2.17-.51,.91-.77,1.91-.78,3.02v4.58c0,1.39,.26,2.58,.78,3.59,.52,1.01,1.25,1.79,2.2,2.33,.95,.55,2.07,.82,3.38,.82,.86,0,1.65-.12,2.37-.37,.72-.24,1.33-.61,1.84-1.09,.51-.49,.9-1.08,1.17-1.79l7.19,.47c-.36,1.73-1.11,3.23-2.23,4.52s-2.57,2.28-4.34,2.99c-1.77,.71-3.81,1.07-6.12,1.07Z"/><path class="cls-3" d="M154.94,50.44c-2.87,0-5.34-.61-7.4-1.83s-3.64-2.92-4.74-5.1-1.65-4.68-1.65-7.52,.56-5.39,1.67-7.56c1.11-2.17,2.7-3.87,4.75-5.09s4.5-1.83,7.33-1.83c2.44,0,4.58,.44,6.42,1.33,1.84,.89,3.29,2.13,4.36,3.74s1.66,3.49,1.77,5.66h-7.33c-.21-1.4-.75-2.53-1.63-3.38-.88-.86-2.03-1.29-3.46-1.29-1.2,0-2.25,.33-3.15,.98-.89,.65-1.59,1.6-2.09,2.84-.5,1.24-.75,2.74-.75,4.51s.25,3.31,.74,4.56c.49,1.25,1.19,2.21,2.09,2.86,.9,.66,1.95,.99,3.16,.99,.89,0,1.69-.18,2.4-.55,.71-.37,1.3-.9,1.77-1.6,.47-.7,.78-1.54,.92-2.53h7.33c-.12,2.14-.7,4.02-1.74,5.65-1.04,1.62-2.47,2.89-4.3,3.8s-3.98,1.37-6.48,1.37Z"/><path class="cls-3" d="M180.22,33.7v16.2h-7.77V12.54h7.55v14.28h.33c.63-1.65,1.65-2.95,3.06-3.89s3.18-1.41,5.31-1.41c1.95,0,3.65,.42,5.1,1.27,1.45,.85,2.58,2.06,3.39,3.63s1.21,3.46,1.2,5.65v17.84h-7.77v-16.46c.01-1.73-.42-3.07-1.3-4.03s-2.11-1.44-3.69-1.44c-1.06,0-1.99,.23-2.8,.68-.81,.45-1.44,1.1-1.9,1.96s-.69,1.89-.7,3.09Z"/><path class="cls-3" d="M204.67,12.54h9.74l10.29,25.1h.44l10.29-25.1h9.74V49.9h-7.66V25.58h-.31l-9.67,24.14h-5.22l-9.67-24.23h-.31v24.41h-7.66V12.54Z"/><path class="cls-3" d="M259.51,50.43c-1.79,0-3.38-.31-4.78-.94-1.4-.63-2.5-1.56-3.31-2.79s-1.21-2.78-1.21-4.62c0-1.56,.29-2.86,.86-3.92,.57-1.06,1.35-1.91,2.33-2.55s2.11-1.13,3.37-1.46c1.26-.33,2.58-.56,3.97-.69,1.63-.17,2.94-.33,3.94-.48,1-.15,1.72-.38,2.17-.68,.45-.3,.67-.75,.67-1.35v-.11c0-1.16-.36-2.05-1.09-2.68s-1.75-.95-3.07-.95c-1.4,0-2.51,.31-3.34,.92-.83,.61-1.37,1.38-1.64,2.31l-7.19-.58c.37-1.7,1.08-3.18,2.15-4.42s2.45-2.21,4.15-2.88c1.7-.68,3.66-1.01,5.9-1.01,1.56,0,3.05,.18,4.48,.55s2.7,.93,3.81,1.7c1.11,.77,1.99,1.75,2.64,2.95s.97,2.63,.97,4.3v18.9h-7.37v-3.89h-.22c-.45,.88-1.05,1.64-1.81,2.31s-1.66,1.18-2.72,1.55c-1.06,.37-2.28,.56-3.67,.56Zm2.23-5.36c1.14,0,2.15-.23,3.03-.68s1.56-1.07,2.06-1.85c.5-.78,.75-1.66,.75-2.65v-2.97c-.24,.16-.58,.3-.99,.43-.42,.13-.89,.24-1.41,.35-.52,.1-1.05,.2-1.57,.27-.52,.08-1,.15-1.42,.21-.91,.13-1.71,.35-2.39,.64s-1.21,.68-1.59,1.18-.57,1.1-.57,1.83c0,1.06,.39,1.86,1.16,2.42,.77,.55,1.75,.83,2.95,.83Z"/><path class="cls-3" d="M281.33,49.9V21.88h7.53v4.89h.29c.51-1.74,1.37-3.06,2.57-3.95,1.2-.89,2.59-1.34,4.16-1.34,.39,0,.81,.02,1.26,.07,.45,.05,.84,.12,1.19,.2v6.9c-.36-.11-.87-.21-1.51-.29s-1.23-.13-1.77-.13c-1.14,0-2.16,.25-3.06,.74-.89,.49-1.6,1.18-2.12,2.05-.52,.88-.78,1.89-.78,3.03v15.85h-7.77Z"/><path class="cls-3" d="M318.63,21.88v5.84h-16.88v-5.84h16.88Zm-13.04-6.71h7.77v26.12c0,.72,.11,1.27,.33,1.67,.22,.4,.53,.67,.92,.83,.39,.16,.85,.24,1.38,.24,.37,0,.73-.03,1.09-.1,.37-.07,.64-.12,.84-.16l1.22,5.78c-.39,.12-.94,.26-1.64,.43-.71,.16-1.56,.26-2.57,.3-1.87,.07-3.51-.18-4.92-.75-1.4-.57-2.5-1.46-3.27-2.66s-1.16-2.72-1.15-4.56V15.16Z"/></g></svg>